<svg id="Layer_1" data-name="Layer 1" xmlns="http://www.w3.org/2000/svg" viewBox="0 0 24 24"><path d="M12,9.5A2.5,2.5,0,1,0,14.5,12,2.5,2.5,0,0,0,12,9.5Z"/><path d="M17.85,7.58a2.44,2.44,0,0,0-1.43-1.43A4.35,4.35,0,0,0,15,5.89c-.79,0-1,0-3,0s-2.24,0-3,0a4.35,4.35,0,0,0-1.39.26A2.44,2.44,0,0,0,6.15,7.58,4.15,4.15,0,0,0,5.9,9c0,.79-.05,1-.05,3s0,2.24.05,3a4.15,4.15,0,0,0,.25,1.39,2.44,2.44,0,0,0,1.43,1.43A4.15,4.15,0,0,0,9,18.1c.79,0,1,0,3,0s2.24,0,3,0a4.15,4.15,0,0,0,1.39-.25,2.44,2.44,0,0,0,1.43-1.43A4.35,4.35,0,0,0,18.11,15c0-.79,0-1,0-3s0-2.24,0-3A4.35,4.35,0,0,0,17.85,7.58ZM12,15.85A3.85,3.85,0,1,1,15.85,12,3.85,3.85,0,0,1,12,15.85Zm4.89-7.68a.87.87,0,0,1-.25.46,1,1,0,0,1-.46.25.92.92,0,0,1-.52-.05.87.87,0,0,1-.4-.33A.93.93,0,0,1,15.1,8a.91.91,0,0,1,.27-.64A.89.89,0,0,1,16,7.1h0a.87.87,0,0,1,.5.15.94.94,0,0,1,.34.4A1,1,0,0,1,16.89,8.17Z"/><path d="M12,0A12,12,0,1,0,24,12,12,12,0,0,0,12,0Zm7.46,15.09a5.69,5.69,0,0,1-.35,1.82,3.88,3.88,0,0,1-2.2,2.2,5.45,5.45,0,0,1-1.82.34c-.8,0-1.05.05-3.09.05s-2.29,0-3.09-.05a5.51,5.51,0,0,1-1.82-.34,3.88,3.88,0,0,1-2.2-2.2,5.45,5.45,0,0,1-.34-1.82c0-.8,0-1.05,0-3.09s0-2.29,0-3.09a5.45,5.45,0,0,1,.34-1.82,3.88,3.88,0,0,1,2.2-2.2,5.45,5.45,0,0,1,1.82-.34c.8,0,1.05,0,3.09,0s2.29,0,3.09,0a5.45,5.45,0,0,1,1.82.34,3.88,3.88,0,0,1,2.2,2.2,5.69,5.69,0,0,1,.35,1.82c0,.8,0,1.05,0,3.09S19.49,14.29,19.46,15.09Z"/></svg>