<svg id="Layer_1" data-name="Layer 1" xmlns="http://www.w3.org/2000/svg" viewBox="0 0 768 768"><defs><style>.cls-1{fill:blue;}</style></defs><path class="cls-1" d="M459.05,22.11H126.35V717.64h97c.79-11.18,1.92-21.27,3.22-30.3q.74-5.18,1.55-9.87c0-.15,0-.31.08-.46.16-.93.32-1.85.49-2.76,0-.19.07-.38.1-.57.17-.92.34-1.82.51-2.71l0-.17c.56-2.9,1.12-5.63,1.69-8.21,0-.06,0-.13,0-.2.17-.76.34-1.5.51-2.23,0-.2.09-.4.13-.6l.48-2,.14-.56c.72-3,1.44-5.77,2.13-8.26l.09-.32c.16-.57.32-1.14.48-1.69,0-.1.06-.2.08-.3l.09-.31h.11q2.29-7.76,5-15.06C321,416.35,691.25,490,691.12,237.6,691,10.12,459.05,22.11,459.05,22.11ZM423.53,365.47c-87.61,28.42-161,63.94-193,98.28V129.85H472.08s107.74-9.47,112.48,87.62S511.15,337.06,423.53,365.47Z"/><circle class="cls-1" cx="501.28" cy="652.6" r="103.4" transform="translate(-314.63 545.6) rotate(-45)"/></svg>