<svg width="24" height="24" viewBox="0 0 24 24" fill="none" xmlns="http://www.w3.org/2000/svg">
<path fill-rule="evenodd" clip-rule="evenodd" d="M13.92 3.59995C10.3412 3.59995 7.43998 6.50115 7.43998 10.08C7.43998 11.8934 8.18331 13.531 9.38497 14.7086C10.5549 15.8551 12.1539 16.56 13.92 16.56C17.4988 16.56 20.4 13.6588 20.4 10.08C20.4 6.50115 17.4988 3.59995 13.92 3.59995ZM5.03998 10.08C5.03998 5.17566 9.01569 1.19995 13.92 1.19995C18.8243 1.19995 22.8 5.17566 22.8 10.08C22.8 14.9842 18.8243 18.96 13.92 18.96C11.9258 18.96 10.0839 18.3016 8.60178 17.1918L3.24075 22.4562L1.5592 20.7437L6.89145 15.5077C5.73143 14.0073 5.03998 12.1236 5.03998 10.08Z" fill="white"/>
</svg>
