<svg id="Layer_1" data-name="Layer 1" xmlns="http://www.w3.org/2000/svg" viewBox="0 0 24 24"><path d="M12,0A12,12,0,1,0,24,12,12,12,0,0,0,12,0Zm5.88,9.41v.37a8.31,8.31,0,0,1-8.36,8.36A8.39,8.39,0,0,1,5,16.83c.22,0,.47,0,.69,0a5.94,5.94,0,0,0,3.66-1.26,2.92,2.92,0,0,1-2.74-2,2.6,2.6,0,0,0,.56.06,2.43,2.43,0,0,0,.77-.12,2.91,2.91,0,0,1-2.36-2.87v0A2.93,2.93,0,0,0,6.91,11,2.92,2.92,0,0,1,5.6,8.53,3.09,3.09,0,0,1,6,7a8.35,8.35,0,0,0,6.06,3.08A2.53,2.53,0,0,1,12,9.44a2.95,2.95,0,0,1,5.09-2,6.13,6.13,0,0,0,1.87-.71,3,3,0,0,1-1.29,1.63,5.81,5.81,0,0,0,1.68-.47A5.41,5.41,0,0,1,17.88,9.41Z"/></svg>