<svg id="Layer_1" data-name="Layer 1" xmlns="http://www.w3.org/2000/svg" viewBox="0 0 24 24"><path d="M9.43,6.64a5.73,5.73,0,0,0-1.85,7.91l.15.23-.57,2.16,2.19-.57.23.11a5.63,5.63,0,0,0,5.9-.07A5.75,5.75,0,1,0,9.43,6.64Zm6.51,6.78a2.74,2.74,0,0,1-.15.53,1.24,1.24,0,0,1-.19.22c-.08.08-.15.12-.23.19l-.08.08c-.07.07-.15.07-.26.15a1.34,1.34,0,0,1-.57.15h-.38c-.11,0-.26,0-.37-.07A6.85,6.85,0,0,1,11,13.23a2.16,2.16,0,0,0-.3-.31l-.15-.15a6.12,6.12,0,0,1-1.4-1.93l0-.11a2.3,2.3,0,0,1-.19-.87,1.88,1.88,0,0,1,.42-1.17c.07-.08.11-.15.19-.23l.22-.15,0,0c.08,0,.15,0,.23,0h.41a.47.47,0,0,1,.27.19,13.87,13.87,0,0,1,.6,1.44.49.49,0,0,1-.07.38c-.08.07-.12.19-.19.26l-.27.31s0,.11,0,.18,0,.12.07.16l0,.07a4,4,0,0,0,.72.91c.07.08.19.15.26.23a3.81,3.81,0,0,0,1.1.72l.19.07a.28.28,0,0,0,.15.08h0a.22.22,0,0,0,.19-.12l.57-.64a.5.5,0,0,1,.26-.08s.08,0,.11,0c.38.19,1,.46,1,.46l.41.19a.36.36,0,0,1,.12.07Z"/><path d="M12,0A12,12,0,1,0,24,12,12,12,0,0,0,12,0Zm.46,18.45a6.88,6.88,0,0,1-3.3-.83l-3.67.94,1-3.59a7.28,7.28,0,0,1-.91-3.45,6.91,6.91,0,0,1,6.92-7,6.91,6.91,0,0,1,6.89,6.93A7,7,0,0,1,12.46,18.45Z"/></svg>